<?xml version="1.0" standalone="no"?>
<!DOCTYPE svg PUBLIC "-//W3C//DTD SVG 1.1//EN" "http://www.w3.org/Graphics/SVG/1.1/DTD/svg11.dtd" >
<svg xmlns="http://www.w3.org/2000/svg" xmlns:xlink="http://www.w3.org/1999/xlink" version="1.1">
<metadata>
Created by FontForge 20170812 at Sat Sep  7 07:12:23 2019
 By root
Beauty Dream (Halymunt Studio). &#60;2019&#62;. All Rights Reserved
</metadata>
<defs>
<font id="BeautyDream" horiz-adv-x="1992" >
  <font-face 
    font-family="Beauty Dream"
    font-weight="400"
    font-stretch="normal"
    units-per-em="2048"
    panose-1="2 0 5 0 0 0 0 0 0 0"
    ascent="1638"
    descent="-410"
    x-height="330"
    cap-height="1744"
    bbox="-935.48 -1204.53 3395.74 2406.26"
    underline-thickness="150"
    underline-position="-217"
    unicode-range="U+0020-007A"
  />
    <missing-glyph />
    <glyph glyph-name="space" unicode=" " horiz-adv-x="508" 
 />
    <glyph glyph-name="space" unicode="&#xa0;" horiz-adv-x="508" 
 />
    <glyph glyph-name="A" unicode="A" horiz-adv-x="2954" 
d="M2402 600c45 -16 -18 -58 -47 -47c-160 58 -326 108 -495 148c116 -545 232 -1089 353 -1633c7 -32 -71 -52 -78 -20c-124 556 -243 1115 -362 1672c-195 42 -393 69 -592 81c-123 -298 -256 -591 -410 -875c-220 -406 -548 -1048 -1087 -1056c-227 -4 -440 133 -545 332
c-131 247 -73 552 49 792c252 498 784 754 1316 830c205 29 414 38 623 31c140 345 266 697 390 1049c8 21 71 49 79 14c85 -385 168 -771 251 -1156c189 -42 375 -96 555 -162zM902 338c72 154 140 310 204 467c-229 8 -458 -4 -683 -43c-527 -90 -1047 -394 -1226 -925
c-82 -245 -79 -528 102 -729c193 -215 487 -238 723 -77c208 142 353 360 484 570c147 237 278 485 396 737zM1202 851c187 -10 374 -35 558 -71c-70 330 -142 660 -215 989c-109 -308 -220 -615 -343 -918z" />
    <glyph glyph-name="B" unicode="B" horiz-adv-x="2258" 
d="M2436 1336c54 9 24 -35 -12 -40c-416 -65 -817 -169 -1202 -348h-2c12 -8 23 -16 35 -23c315 -211 632 -434 769 -811c265 -728 -527 -1372 -1189 -1270c-351 55 -654 271 -775 620c-120 346 6 672 251 921c133 137 282 255 441 359c-3 364 -4 728 20 1091
c-64 -10 -128 -21 -191 -34c-101 -22 -200 -48 -296 -85c-38 -15 -76 -31 -113 -50c-42 -22 -125 -66 -122 -126c1 -29 -78 -44 -79 -22c-5 145 260 221 361 255c219 73 451 108 680 130c190 18 403 37 589 -20c56 -17 140 -57 100 -128c-32 -59 -123 -100 -178 -131
c-159 -92 -340 -150 -490 -255c-120 -83 -110 -179 -6 -276c46 -43 98 -80 150 -116c401 183 838 293 1259 359zM851 1847c-23 -351 -24 -702 -21 -1054c89 54 181 104 276 150c-35 25 -69 50 -103 77c-87 71 -198 171 -112 288c65 87 178 132 271 178
c141 70 327 129 441 243c93 93 -98 126 -157 134c-95 13 -192 15 -288 11c-102 -4 -205 -14 -307 -27zM1754 429c-167 207 -394 336 -606 484c-107 -52 -214 -109 -318 -173c2 -201 4 -403 3 -604c-1 -28 -79 -44 -79 -9c1 187 -1 375 -2 563c-174 -115 -336 -250 -465 -411
c-209 -263 -251 -583 -110 -890c153 -330 510 -520 859 -515c362 5 713 246 878 574c167 333 63 704 -160 981z" />
    <glyph glyph-name="C" unicode="C" horiz-adv-x="2201" 
d="M1963 1807c210 -152 301 -439 262 -704c-42 -289 -213 -516 -436 -667c-165 -113 -391 -206 -556 -46c-18 18 55 50 74 32c228 -222 591 115 720 328c141 234 176 546 52 796c-247 500 -875 365 -1228 93c-366 -281 -622 -744 -672 -1230c-50 -478 107 -970 520 -1191
c436 -234 957 -129 1349 157c18 13 96 15 61 -10c-452 -331 -1090 -459 -1573 -124c-476 329 -530 1024 -345 1558c181 524 595 979 1105 1098c220 51 473 49 667 -90z" />
    <glyph glyph-name="D" unicode="D" horiz-adv-x="2503" 
d="M275 57c17 -24 -58 -48 -71 -29c-384 552 -289 1355 266 1756c458 330 1130 346 1537 -77c459 -477 440 -1250 153 -1810c-132 -258 -323 -487 -559 -656c-221 -158 -506 -288 -782 -209c-310 89 -386 376 -369 667c22 347 134 681 319 974c11 18 55 29 72 15
c63 -55 55 -140 55 -217c2 -119 3 -237 4 -356c3 -244 5 -487 8 -731c0 -27 -77 -41 -77 -20c-2 230 -5 461 -7 691c-1 119 -3 237 -4 356c-1 61 9 140 -17 200c-160 -275 -257 -584 -276 -901c-9 -159 -3 -339 96 -472c100 -135 274 -199 439 -188c300 22 580 249 772 468
c174 200 304 438 380 692c158 534 77 1194 -380 1561c-472 379 -1176 238 -1538 -222c-334 -424 -324 -1055 -21 -1492z" />
    <glyph glyph-name="E" unicode="E" horiz-adv-x="1735" 
d="M1222 1823c142 -11 295 -28 424 -89c27 -12 -45 -41 -63 -32c-233 109 -558 115 -808 79c-277 -41 -610 -161 -726 -440c-114 -273 65 -526 278 -686c28 -20 57 -40 87 -59c168 69 354 101 530 105c152 3 324 -9 450 -102c148 -108 -18 -190 -126 -222
c-301 -90 -624 3 -888 165c-167 -82 -312 -210 -368 -391c-79 -253 52 -550 240 -720c240 -219 604 -337 916 -222c219 81 411 258 383 510c-17 155 -123 327 -288 353c-41 7 31 38 50 35c229 -36 353 -293 310 -507c-64 -319 -461 -474 -753 -474c-324 0 -679 187 -845 468
c-169 286 -146 618 114 838c62 52 132 96 206 132c-31 21 -62 42 -91 64c-256 192 -434 510 -224 805c167 236 484 341 758 381c144 21 290 20 434 9zM585 620c-45 -13 -91 -28 -135 -46c86 -52 178 -97 272 -132c165 -60 396 -109 562 -29c58 28 121 64 71 130
c-8 11 -23 20 -34 28c-30 23 -64 39 -99 53c-71 27 -148 37 -223 40c-139 7 -280 -8 -414 -44z" />
    <glyph glyph-name="F" unicode="F" horiz-adv-x="1956" 
d="M1899 2134c404 -105 593 -534 570 -931c-1 -24 -82 -41 -80 -12c30 534 -354 1040 -915 904c-462 -112 -707 -579 -827 -1013c-17 -63 -31 -128 -43 -193c9 1 18 2 28 4c236 33 481 46 718 12c171 -24 378 -75 472 -240c10 -17 -67 -46 -81 -22
c-134 235 -507 242 -737 240c-130 -1 -269 -7 -406 -26c-15 -87 -25 -176 -31 -265c270 -71 522 -197 706 -420c204 -248 380 -672 193 -977c-74 -121 -207 -196 -348 -181c-179 18 -323 173 -407 325c-199 357 -243 805 -221 1215c-100 24 -202 43 -304 63
c-96 19 -196 64 -71 137c119 70 268 101 409 123c60 350 199 707 439 959c234 246 604 385 936 298zM972 350c-128 90 -265 144 -408 184c-13 -293 22 -592 103 -861c59 -194 138 -390 296 -522c44 -36 95 -70 151 -86c116 -34 214 27 273 123c60 98 75 215 69 328
c-18 334 -220 649 -484 834zM498 678c5 55 12 110 21 166c-109 -19 -215 -47 -312 -88c-41 -17 -102 -38 -52 -77c30 -23 92 -23 127 -30c56 -10 112 -19 168 -30c14 -3 29 -6 43 -10c2 23 3 46 5 69z" />
    <glyph glyph-name="G" unicode="G" horiz-adv-x="1955" 
d="M2212 1542l-61 -43c-189 280 -497 470 -865 451c-628 -34 -991 -635 -1116 -1191c-118 -522 -70 -1257 456 -1550c283 -157 600 -93 803 157c178 220 227 511 183 786c-42 263 -175 632 -470 697c-158 35 -381 -35 -431 -206c-60 -199 238 -255 377 -259
c14 0 23 -4 27 -9c3 -2 6 -4 5 -8c-5 -47 -10 -95 -15 -142c-3 -28 -82 -32 -80 -12c4 42 9 85 13 127c-140 9 -365 51 -410 194s104 272 218 323c136 61 301 64 437 0c154 -72 251 -221 316 -373c134 -316 159 -695 -12 -1002c-138 -249 -394 -424 -686 -408
c-749 41 -931 944 -838 1540c103 658 520 1356 1252 1382c375 13 696 -173 897 -454z" />
    <glyph glyph-name="H" unicode="H" horiz-adv-x="2565" 
d="M2491 1738c-12 -899 28 -1799 16 -2698c-1 -26 -77 -42 -79 -14c-13 189 -24 376 -69 562c-59 247 -167 488 -349 677c-39 40 -81 76 -125 110c-182 3 -365 7 -547 11c-52 1 -105 2 -157 2c5 -461 -23 -923 -83 -1382c-3 -22 -80 -29 -79 -20c62 466 89 934 83 1403
c-246 2 -493 4 -734 39c-85 13 -202 19 -266 80c-54 51 -25 109 29 146c79 54 196 68 291 80c124 16 251 16 376 11c96 -3 195 -11 294 -23c-14 305 -42 611 -86 914c-2 19 77 35 79 20c44 -314 73 -629 87 -946c276 -42 549 -127 766 -288c140 -3 281 -5 421 -8
c53 -1 5 -49 -29 -49c-110 3 -219 5 -329 7v0c240 -206 362 -471 428 -755c-4 705 -26 1410 -17 2114c1 29 80 43 79 7zM853 445c83 -2 166 -4 248 -5c-1 75 -3 151 -6 227c-47 7 -93 12 -140 17c-131 13 -265 19 -397 14c-49 -2 -97 -5 -145 -12c-50 -6 -173 -17 -215 -52
c-99 -80 17 -122 95 -139c71 -15 144 -25 216 -32c115 -11 229 -15 344 -18zM1180 438c211 -5 422 -9 633 -13c-188 121 -411 190 -639 230c3 -73 5 -145 6 -217z" />
    <glyph glyph-name="I" unicode="I" horiz-adv-x="1437" 
d="M858 1744c258 194 333 -184 355 -371c90 -756 53 -1520 8 -2278l-78 2c19 309 35 618 42 928c8 345 5 691 -22 1035c-12 152 -21 310 -55 459c-14 61 -32 127 -67 181c-48 73 -111 45 -167 -11c-195 -196 -343 -459 -467 -703c-71 -139 -134 -281 -191 -425
c-31 -78 -63 -157 -88 -236c-10 -32 -20 -65 -22 -99c-1 -13 4 -122 37 -121c54 3 29 -43 -11 -44c-172 -9 -84 253 -53 337c68 185 144 368 232 545c78 158 165 312 265 457c79 117 168 258 282 344z" />
    <glyph glyph-name="J" unicode="J" horiz-adv-x="2186" 
d="M1683 185c497 128 478 77 -23 -55c-134 -319 -329 -613 -585 -848c-210 -191 -548 -452 -854 -401c-402 67 105 555 229 663c333 290 730 488 1150 617c144 351 216 735 207 1104c-10 357 -204 687 -604 629c-318 -46 -624 -197 -867 -403c-216 -183 -477 -539 -223 -803
c205 -213 660 -224 897 -75c28 18 95 0 50 -28c-267 -168 -739 -171 -987 41c-337 287 -10 714 241 917c265 214 607 376 950 406c367 33 588 -248 618 -592c32 -382 -55 -796 -190 -1150c-3 -8 -7 -15 -9 -22zM1194 -511c156 182 284 391 383 615
c-383 -121 -745 -304 -1051 -567c-114 -98 -229 -206 -311 -334c-44 -69 -116 -182 -29 -244c74 -54 180 -31 260 -8c293 83 554 312 748 538z" />
    <glyph glyph-name="K" unicode="K" horiz-adv-x="2353" 
d="M2132 2398c296 46 537 -102 608 -398c79 -327 -82 -651 -260 -916c-312 -466 -773 -859 -1280 -1113c69 -51 136 -104 204 -154c307 -226 664 -349 1049 -311c52 5 -12 -32 -34 -34c-273 -27 -546 18 -794 135c-180 86 -331 216 -490 333l-18 -9c25 -176 48 -352 63 -529
c10 -112 19 -227 11 -340c-5 -56 -11 -126 -68 -152c-117 -54 -147 101 -159 181c-39 252 -25 514 -16 768c-125 -49 -255 -85 -389 -100c-114 -13 -312 -24 -385 89c-66 103 43 222 123 276c93 63 208 90 320 89c124 -1 237 -36 343 -90c17 341 42 682 68 1022
c2 26 82 41 80 11c-20 -258 -39 -516 -55 -774c3 -2 4 -4 5 -7c13 -112 29 -224 44 -336c23 -14 44 -30 66 -45c52 28 104 56 154 86c452 269 857 627 1135 1077c140 226 257 490 215 762c-46 301 -274 503 -587 441c-260 -51 -489 -224 -644 -433
c-80 -109 -148 -233 -186 -363c-37 -125 -40 -360 140 -378c40 -4 -33 -36 -51 -34c-155 15 -207 177 -187 313c24 164 114 325 212 457c183 245 458 428 763 476zM1035 -72c-1 10 -2 20 -4 30c0 -11 -1 -22 -1 -33c2 1 4 2 5 3zM334 -184c178 -75 410 -5 581 61
c12 4 23 10 35 14c2 56 4 112 7 167c-26 15 -53 30 -80 44c-142 69 -327 113 -476 42c-133 -63 -250 -252 -67 -328zM1075 -374c-11 90 -23 180 -35 270c-4 -1 -8 -3 -12 -5c-9 -239 -18 -483 8 -722c6 -59 12 -127 38 -182c5 -10 13 -18 20 -26c3 5 5 11 6 15
c26 84 15 185 10 271c-6 127 -20 253 -35 379z" />
    <glyph glyph-name="L" unicode="L" horiz-adv-x="2182" 
d="M2333 -385c36 12 84 -12 31 -30c-495 -171 -897 217 -1358 317c-35 7 -70 12 -106 15c-123 -176 -272 -332 -450 -453c-48 -32 -127 -89 -187 -49c-64 42 -31 153 -4 207c86 172 272 288 456 326c48 10 95 14 142 14c122 183 216 385 285 591c66 195 110 398 131 603
c24 224 37 500 -105 691c-182 244 -470 -3 -599 -178c-127 -174 -192 -384 -187 -599c0 -29 -79 -44 -80 -21c-5 268 92 527 278 721c128 133 362 301 553 204c218 -111 240 -433 232 -644c-11 -271 -65 -542 -154 -797c-69 -199 -162 -395 -281 -573
c152 -12 301 -64 443 -126c296 -128 628 -334 960 -219zM534 -412c111 98 209 209 294 331c-145 -4 -284 -54 -393 -162c-51 -50 -174 -195 -123 -278c42 -66 181 74 222 109z" />
    <glyph glyph-name="M" unicode="M" horiz-adv-x="2253" 
d="M2152 1024c28 -184 44 -369 52 -555c16 -363 19 -743 -51 -1102c-18 -90 -39 -241 -138 -281c-73 -30 -122 16 -162 74c-70 102 -114 230 -139 350c-16 79 -43 212 29 273c15 13 90 20 71 3c-78 -66 -29 -233 -7 -315c29 -109 73 -252 158 -332c8 -8 16 -15 26 -22
c1 0 1 0 2 -1c15 16 26 44 33 62c32 75 47 158 60 237c30 185 40 374 45 562c7 328 -4 659 -51 985c-20 135 -45 271 -89 401c-32 92 -80 181 -152 247c-28 26 -65 55 -102 64c-84 18 -133 -53 -170 -112c-209 -338 -213 -764 -334 -1134c-21 -66 -79 -176 -169 -144
c-63 23 -77 126 -93 180c-27 93 -50 188 -71 283c-46 201 -86 404 -149 601c-32 102 -67 214 -135 298c-34 44 -68 81 -133 43c-39 -23 -63 -95 -82 -136c-136 -307 -161 -664 -179 -996c-15 -283 -18 -567 -3 -850c6 -121 15 -244 37 -363c7 -42 15 -91 31 -136
c24 11 63 13 60 -3c-5 -27 -9 -54 -14 -82c-3 -18 -63 -33 -76 -20c-64 69 -76 187 -89 275c-24 168 -31 339 -35 509c-7 348 2 700 45 1047c28 223 65 470 176 669c50 89 149 186 260 136c78 -35 124 -133 156 -207c45 -102 76 -210 104 -318c61 -230 102 -465 166 -694
c15 -55 25 -136 64 -179c20 -22 -3 -46 30 19c9 18 16 37 22 56c33 100 52 206 75 309c51 229 98 462 187 679c51 124 125 278 270 307c146 29 261 -89 327 -206c82 -143 112 -320 137 -481zM1996 -886c8 -3 7 2 0 0z" />
    <glyph glyph-name="N" unicode="N" 
d="M1792 1730c-5 22 74 41 78 21c137 -644 137 -1344 -47 -1978c-58 -204 -147 -472 -347 -580c-61 -33 -139 -53 -205 -24c-101 44 -138 174 -162 270c-72 289 -88 596 -124 891c-35 290 -74 582 -154 863c-37 133 -78 278 -160 390c-19 25 -54 74 -88 80
c-24 4 -98 -34 -115 -50s-31 -39 -43 -58c-36 -58 -62 -122 -86 -186c-106 -291 -156 -605 -170 -915c-13 -305 0 -625 83 -921c39 -139 96 -284 198 -389c59 -61 134 -107 222 -75c67 24 110 114 136 173c9 22 85 29 77 12c-82 -189 -297 -320 -479 -166
c-249 211 -291 628 -311 931c-21 328 -1 662 67 985c33 153 74 309 139 451c45 96 106 198 211 236c240 85 334 -263 384 -429c91 -302 132 -617 170 -929c36 -307 45 -637 138 -932c19 -62 47 -142 102 -181c104 -72 200 40 252 113c95 130 149 290 193 444
c177 629 177 1317 41 1953z" />
    <glyph glyph-name="O" unicode="O" horiz-adv-x="2212" 
d="M1388 1902c582 -248 773 -910 658 -1494c-106 -543 -548 -1047 -1134 -1040c-259 4 -521 116 -689 316c-198 236 -245 565 -213 862c32 295 148 582 332 815c148 187 403 386 644 227c34 -22 -36 -57 -61 -41c-315 208 -614 -303 -716 -537
c-117 -271 -163 -585 -105 -876c51 -252 188 -473 414 -601c222 -126 491 -148 730 -58c513 194 758 752 750 1271c-8 514 -267 1008 -788 1156c-492 138 -989 -166 -1173 -626c-11 -28 -89 -33 -74 6c221 553 867 858 1425 620z" />
    <glyph glyph-name="P" unicode="P" horiz-adv-x="1915" 
d="M548 1757c396 279 955 172 1205 -263c238 -414 150 -1106 -232 -1400c-372 -287 -874 -178 -1292 -2c5 -63 10 -126 13 -188c12 -181 22 -361 33 -542c1 -17 2 -35 3 -53c37 76 104 125 183 42c22 -23 -52 -53 -72 -32c-8 9 -17 16 -26 22c0 -1 0 -2 -1 -2
c-7 -22 -18 -42 -24 -64c-14 -55 -20 -114 -24 -171c-7 -84 -1 -170 -8 -255c-1 -14 -23 -22 -34 -26v0c-10 -3 -42 -6 -45 12c-35 236 -29 487 -43 726c-12 189 -27 379 -40 568c-61 27 -119 55 -174 83c-34 18 38 53 62 41c34 -17 70 -35 107 -52c-1 10 -2 20 -3 31
c-33 517 -52 1198 412 1525zM1664 355c228 419 191 1060 -203 1358c-193 146 -439 193 -667 117c-254 -85 -428 -299 -510 -557c-113 -357 -88 -738 -60 -1111c486 -212 1140 -358 1440 193z" />
    <glyph glyph-name="Q" unicode="Q" horiz-adv-x="1948" 
d="M1639 -96c-88 -111 -203 -201 -330 -265c14 -35 35 -68 67 -99c102 -99 242 -142 383 -123c54 8 29 -41 -10 -46c-147 -21 -295 13 -412 108c-47 39 -80 81 -100 127c-214 -90 -457 -108 -678 -32c-389 135 -571 547 -518 937c40 292 222 670 503 831
c-32 -8 -68 10 -21 30c236 98 487 171 742 109c211 -51 401 -181 511 -370c214 -368 121 -885 -137 -1207zM1297 -322c175 99 319 257 406 448c147 321 167 745 -55 1038c-106 140 -265 237 -435 279c-163 39 -321 17 -475 -30c14 2 28 4 42 5c55 5 24 -35 -12 -38
c-247 -22 -429 -281 -532 -485c-91 -180 -140 -386 -124 -589c26 -338 253 -646 593 -720c183 -39 361 -15 519 56c-21 73 -14 154 14 241c65 198 191 393 166 610c-13 108 -71 231 -196 236c-103 4 -282 -108 -216 -228c13 -24 -63 -49 -78 -21c-78 143 131 266 245 289
c169 34 293 -72 320 -237c38 -236 -102 -442 -168 -658c-21 -69 -28 -134 -14 -196z" />
    <glyph glyph-name="R" unicode="R" horiz-adv-x="2653" 
d="M2425 623c-226 -276 -567 -469 -906 -571c-36 -11 -75 -21 -116 -31c51 -86 97 -174 146 -257c158 -269 371 -556 716 -553c179 2 294 99 294 281c0 139 -100 368 -279 320c-48 -13 -59 30 -12 43c246 66 396 -201 366 -413c-38 -259 -323 -309 -541 -265
c-422 85 -560 491 -761 828c-85 -18 -175 -31 -265 -35c4 -177 8 -355 11 -532c1 -21 -78 -33 -78 -21c-4 184 -8 368 -11 552c-164 3 -321 40 -440 140c-96 80 -139 236 -33 327c99 86 262 84 381 52c29 -8 56 -19 82 -30l-12 582c-1 21 78 32 78 21c4 -215 9 -429 13 -644
c137 -84 236 -214 321 -355c280 62 545 191 769 369c286 227 505 593 390 967c-117 380 -502 533 -872 507c-380 -26 -739 -215 -1024 -460c-126 -108 -239 -232 -326 -373c-85 -138 -209 -365 -76 -510c22 -24 -52 -53 -72 -32c-134 145 -32 359 50 504
c95 167 226 313 373 437c299 254 672 446 1068 480c338 29 700 -64 885 -372c185 -307 98 -690 -119 -956zM577 186c91 -119 257 -157 411 -163c-3 121 -5 243 -8 364c-1 1 -3 2 -4 3c-96 54 -219 89 -329 61c-128 -34 -142 -173 -70 -265zM1140 26c56 5 111 12 165 22
c-69 109 -146 209 -245 286l6 -312c26 1 51 2 74 4z" />
    <glyph glyph-name="S" unicode="S" horiz-adv-x="1969" 
d="M1961 464c47 13 59 -32 12 -45c-363 -105 -726 -231 -1044 -440c-9 -6 -19 -13 -28 -19c2 -3 5 -5 7 -7c137 -149 420 -411 297 -639c-99 -184 -403 -219 -581 -157c-232 82 -243 346 -116 524c76 107 179 198 291 277c-197 202 -425 382 -591 609
c-164 224 -190 484 -31 720c154 226 406 376 662 458c252 82 550 113 808 38c103 -30 212 -80 277 -168c68 -91 57 -203 22 -305c-73 -214 -310 -384 -515 -458c-77 -28 -200 -58 -276 -10c-68 44 -69 131 -1 171c28 17 95 -1 50 -28c-71 -42 21 -110 64 -115
c48 -7 109 11 153 28c69 28 137 70 198 112c132 91 243 215 270 377c62 362 -463 401 -706 380c-310 -26 -628 -150 -845 -378c-229 -241 -247 -538 -48 -802c163 -218 383 -391 572 -587c90 58 184 110 274 155c262 134 543 227 825 309zM860 -107c-7 8 -15 16 -22 24
c-122 -86 -243 -190 -305 -321c-93 -200 28 -394 244 -414c194 -17 430 84 363 313c-45 156 -173 282 -280 398z" />
    <glyph glyph-name="T" unicode="T" horiz-adv-x="1824" 
d="M2822 1787c54 6 27 -37 -11 -41c-160 -19 -322 -30 -484 -40c-261 -17 -523 -29 -784 -36c-7 -272 -12 -545 -16 -817c0 -1 1 -2 1 -3c141 -303 191 -638 176 -967c-7 -168 -32 -336 -72 -500c-23 -97 -48 -191 -163 -209c-13 -2 -34 -1 -34 15c2 548 5 1095 13 1643
c-8 19 -17 38 -26 56c-184 359 -519 662 -920 781c-116 9 -230 25 -338 55c-44 12 20 42 39 41c109 -3 216 -19 317 -47c74 -4 148 -6 220 -9c242 -7 484 -5 725 0c1 27 1 54 2 80c1 25 79 40 78 10c0 -30 -1 -59 -2 -88c426 11 856 26 1279 76zM1626 87
c-9 188 -42 376 -102 556c-6 -467 -9 -935 -10 -1402c34 52 47 162 55 198c14 66 26 133 35 199c21 149 29 299 22 449zM1451 996c3 224 8 448 13 672c-120 -3 -241 -5 -362 -5c-132 -1 -272 -5 -412 -2c320 -131 587 -373 761 -665z" />
    <glyph glyph-name="U" unicode="U" horiz-adv-x="2238" 
d="M2095 1447c8 23 80 36 76 1c-78 -724 -128 -1451 -151 -2179c-1 -31 -80 -45 -79 -8c21 639 62 1278 124 1915c-150 -385 -309 -767 -508 -1128c-103 -186 -217 -365 -347 -533c-116 -150 -250 -304 -427 -382c-149 -66 -323 -70 -459 26c-146 103 -228 284 -263 454
c-79 386 21 847 195 1197c74 147 180 311 331 390c108 57 241 68 320 -40c21 -29 -54 -57 -73 -32c-150 205 -385 -115 -459 -240c-96 -163 -155 -344 -197 -527c-77 -335 -120 -745 92 -1042c117 -164 306 -232 495 -140c172 84 300 245 412 395c418 560 668 1227 918 1873
z" />
    <glyph glyph-name="V" unicode="V" horiz-adv-x="1763" 
d="M2963 1668c38 14 83 -19 32 -38c-497 -187 -928 -520 -1247 -943c-342 -455 -544 -993 -678 -1542c-6 -25 -69 -46 -79 -14c-161 532 -323 1064 -485 1596c-21 71 -42 143 -63 214v0c-56 69 -111 137 -163 208c-25 35 -96 112 -89 161c7 44 59 45 94 37
c95 -22 146 -113 177 -198c119 -324 203 -666 304 -997c88 -289 175 -578 263 -868c140 518 344 1021 676 1447c325 420 760 750 1258 937zM301 1266c9 -18 18 -37 27 -50c15 -22 31 -43 47 -64c-14 34 -30 68 -54 94c-6 8 -13 14 -20 20z" />
    <glyph glyph-name="W" unicode="W" horiz-adv-x="3490" 
d="M2174 2385c383 -28 716 -268 930 -619c210 -345 310 -773 289 -1189c-18 -353 -115 -745 -389 -958c-230 -179 -543 -216 -776 -24c-250 205 -385 579 -452 915c-165 -336 -347 -668 -617 -909c-213 -191 -540 -359 -798 -171c-251 184 -279 575 -215 871
c72 338 278 674 571 814c231 110 557 89 689 -185c9 -17 -66 -48 -78 -24c-85 177 -280 258 -453 227c-193 -34 -353 -194 -464 -364c-188 -287 -288 -701 -164 -1042c55 -150 159 -280 303 -323c230 -68 456 105 618 270c257 261 427 606 589 944c7 14 74 45 78 18
c59 -358 193 -785 466 -1010c315 -260 704 -54 872 299c146 308 170 690 125 1029c-92 677 -519 1344 -1173 1391c-41 3 30 41 49 40z" />
    <glyph glyph-name="X" unicode="X" 
d="M2163 1438c19 21 95 19 63 -16c-257 -286 -510 -575 -761 -866l75 -144c158 -294 315 -588 472 -882c10 -19 -65 -45 -78 -21c-175 328 -350 655 -525 982c-391 -455 -776 -916 -1152 -1383c-18 -22 -97 -25 -74 3c391 486 790 963 1196 1435c-51 95 -102 190 -153 286
c-59 111 -118 223 -179 335c-48 88 -104 188 -201 231c-252 111 -514 -144 -494 -394c2 -27 -77 -43 -79 -21c-17 214 135 391 332 456c206 66 378 -8 487 -191c122 -207 232 -423 344 -637c240 278 481 554 727 827z" />
    <glyph glyph-name="Y" unicode="Y" horiz-adv-x="2441" 
d="M2428 570c47 10 59 -32 11 -42c-46 -11 -139 -35 -232 -61c-20 -77 -42 -154 -66 -230c-113 -358 -263 -714 -507 -1003c-192 -230 -496 -475 -817 -434c-136 18 -266 95 -313 229c-55 159 18 336 107 468c208 307 533 546 855 721c214 116 440 206 672 275
c51 192 94 387 127 583c10 63 20 126 29 190c3 25 33 136 15 156c-23 26 -175 -130 -193 -146c-266 -241 -529 -493 -839 -677c-257 -153 -612 -302 -911 -188c-322 123 -394 492 -285 788c95 257 318 524 613 529c326 5 509 -327 448 -621c-6 -29 -85 -41 -79 -9
c45 212 -39 469 -252 556c-248 100 -469 -105 -585 -305c-107 -185 -162 -428 -75 -632c101 -235 343 -326 585 -285c387 65 717 328 1004 579c143 124 282 254 424 380c42 37 193 183 223 52c20 -84 -19 -199 -32 -282c-15 -101 -34 -202 -54 -302
c-23 -115 -50 -229 -80 -342c84 23 169 44 207 53zM1644 -657c237 326 376 714 481 1099c-296 -91 -580 -216 -840 -388c-189 -126 -369 -274 -515 -448c-135 -161 -298 -426 -149 -630c149 -203 433 -136 616 -24c161 99 296 238 407 391z" />
    <glyph glyph-name="Z" unicode="Z" horiz-adv-x="2249" 
d="M2556 -709c52 -6 4 -53 -29 -49c-800 98 -1607 91 -2406 -19c-29 -4 -45 18 -20 38c323 251 624 521 924 798c408 379 816 758 1221 1141c55 52 100 132 -9 169c-118 40 -262 12 -381 -8c-188 -31 -382 -73 -569 -16c-187 58 -287 204 -411 344
c-103 117 -220 167 -366 84c-109 -62 -200 -156 -288 -245c-21 -20 -97 -16 -64 17c143 144 342 356 568 321c115 -18 192 -107 262 -192c87 -105 170 -210 299 -265c245 -104 510 9 761 24c102 6 453 -9 310 -202c-45 -61 -116 -111 -170 -162
c-106 -99 -211 -198 -317 -297c-543 -508 -1076 -1029 -1659 -1490c778 100 1565 105 2344 9z" />
    <glyph glyph-name="a" unicode="a" horiz-adv-x="986" 
d="M1007 231c-55 -68 -121 -122 -199 -162c-79 -41 -161 -63 -249 -67c-71 -2 -132 14 -182 48c-49 34 -83 81 -102 143c-34 -47 -77 -83 -128 -107c-30 -13 -63 -19 -99 -17c-36 1 -66 15 -90 40c-19 22 -25 45 -18 67c6 23 19 43 38 61c20 18 40 33 60 43
c74 37 150 43 229 19c6 6 14 11 25 14c11 4 21 4 30 2s14 -7 15 -17c1 -87 23 -150 67 -187c43 -38 97 -56 162 -55c64 1 129 16 193 46c65 29 119 67 163 114c2 2 5 6 10 10c5 5 10 9 16 13c5 4 10 7 14 8c9 2 18 3 27 3c8 0 15 -2 19 -5s4 -8 -1 -14zM110 126
c28 8 52 22 75 42c23 23 41 49 56 80l3 6c-6 -1 -12 -1 -16 1c-58 20 -114 16 -167 -13c-44 -29 -58 -57 -40 -85c9 -15 22 -24 39 -30c16 -5 33 -5 50 -1z" />
    <glyph glyph-name="b" unicode="b" horiz-adv-x="890" 
d="M267 24c-75 -31 -142 -27 -199 13s-95 97 -114 170c-25 106 -30 216 -15 331s43 222 83 322c29 78 70 153 123 224s118 124 198 157c41 16 84 22 129 19s84 -17 117 -42c34 -25 55 -62 63 -112c7 -59 -1 -119 -23 -179c-21 -61 -50 -119 -87 -174
c-36 -55 -72 -104 -109 -147c-118 -143 -254 -266 -408 -369c4 -17 10 -35 16 -52c15 -44 40 -81 77 -111c31 -20 64 -24 101 -13c-32 13 -54 34 -68 62c-15 46 -7 84 27 113c33 30 73 38 117 25c35 -15 53 -41 55 -77c1 -36 -8 -71 -27 -104c30 -7 56 -11 78 -13
c158 -17 306 40 443 170c4 4 11 7 20 9s18 3 27 3c8 0 14 -2 18 -5c3 -3 1 -9 -6 -16c-152 -140 -317 -208 -494 -202c-34 0 -74 5 -120 13c-7 -7 -15 -11 -22 -15zM265 197c-8 15 -16 21 -22 18c-7 -2 -11 -9 -14 -21c-3 -11 -3 -22 -1 -34c3 -26 16 -46 38 -59
c8 13 12 30 11 49c-2 20 -5 36 -12 47zM42 690c-15 -65 -26 -133 -33 -203c-6 -71 -4 -140 7 -208c120 80 230 179 331 296s172 243 214 378c12 38 17 77 17 117s-14 76 -41 107c-33 33 -67 48 -105 46c-37 -2 -73 -15 -108 -37c-35 -23 -65 -49 -89 -78
c-51 -59 -91 -125 -122 -197s-55 -145 -71 -221z" />
    <glyph glyph-name="c" unicode="c" horiz-adv-x="933" 
d="M20 41c-64 40 -93 86 -86 139c6 53 43 94 109 122c26 10 64 18 113 23c49 6 95 3 136 -9c42 -11 64 -36 66 -76c-1 -8 -8 -15 -20 -20c-12 -6 -24 -7 -36 -6s-18 7 -19 17c-1 15 -9 25 -24 32s-32 11 -50 12c-18 2 -32 3 -41 2c-29 -1 -61 -8 -97 -21s-58 -35 -66 -66
c-3 -28 6 -53 27 -77c21 -23 46 -39 75 -47c41 -10 82 -15 124 -16c43 -1 83 0 121 3c189 17 365 76 526 175c3 2 9 4 16 8c7 3 15 6 22 9c8 3 14 4 18 5c13 -1 22 -4 28 -9c5 -5 1 -12 -12 -22c-148 -94 -308 -158 -480 -192c-67 -14 -143 -23 -228 -27
c-84 -4 -158 10 -222 41z" />
    <glyph glyph-name="d" unicode="d" horiz-adv-x="1028" 
d="M911 176c4 6 11 15 19 25s16 20 25 28c8 9 14 14 19 15c7 2 14 3 21 3c7 1 12 0 16 0c5 -1 6 -2 5 -4c-39 -73 -98 -135 -175 -186c-77 -52 -160 -84 -250 -97s-173 2 -251 45c-31 -44 -75 -77 -131 -99c-51 -19 -104 -25 -159 -18c-56 8 -101 35 -135 81
c-36 56 -43 114 -21 175c21 60 61 104 119 131c59 22 106 19 143 -9c-19 52 -34 100 -45 145c-15 53 -26 113 -32 180s-2 132 10 196c12 63 39 118 79 162c44 45 90 62 137 53s84 -41 112 -95c39 -87 58 -182 58 -286c-1 -104 -10 -202 -27 -294c-7 -46 -16 -93 -28 -140
c-11 -47 -28 -91 -49 -133c55 -46 117 -69 184 -67c68 1 134 19 197 55c64 35 117 80 159 134zM214 927c-30 -40 -49 -88 -58 -143s-10 -112 -5 -169c5 -58 13 -110 25 -156c14 -60 33 -122 58 -184c25 -63 56 -120 93 -171c53 164 76 332 69 505c0 18 -4 51 -11 99
s-17 96 -32 145c-14 49 -33 83 -56 103c-23 19 -50 10 -83 -29zM112 -84c46 -4 83 6 114 29c30 24 54 54 72 90c-30 27 -55 58 -77 94c1 -21 -2 -42 -7 -64c-1 -4 -5 -5 -12 -3s-14 6 -23 12c-8 6 -16 12 -22 20c-7 7 -10 14 -11 20c-3 30 -9 59 -21 87
c-11 27 -26 45 -47 54c-20 8 -45 -2 -75 -30c-23 -24 -38 -52 -44 -86s-5 -67 4 -98c24 -71 74 -113 149 -125z" />
    <glyph glyph-name="e" unicode="e" horiz-adv-x="837" 
d="M232 -1c-36 -5 -78 -6 -127 -5c-49 0 -96 8 -139 24c-44 15 -75 42 -93 81c-15 42 -10 80 16 112c25 33 60 56 102 69c43 14 83 13 119 -1c41 -19 55 -42 44 -68s-35 -51 -71 -75c-36 -23 -71 -41 -105 -52c32 -21 66 -34 102 -40c117 -19 234 -7 350 35s218 101 308 177
c2 1 5 3 10 7c5 3 10 6 16 9c5 2 10 4 14 5c9 1 17 1 25 0s13 -3 16 -7c2 -4 0 -9 -8 -15c-167 -145 -360 -230 -579 -256zM-58 171c-4 -22 -1 -40 8 -55v0v0c9 1 24 7 45 17s41 22 60 35c18 14 29 26 30 38c-1 25 -12 38 -33 38c-22 1 -44 -6 -67 -20
c-23 -15 -38 -32 -43 -53z" />
    <glyph glyph-name="f" unicode="f" horiz-adv-x="763" 
d="M-19 -238c-26 164 -29 329 -7 494v2v1c0 2 0 4 1 6c8 72 23 144 43 218c21 73 52 139 92 199c22 34 52 65 89 94s78 41 122 35c27 -6 43 -20 46 -41c4 -21 2 -43 -6 -68s-17 -46 -25 -64c-32 -71 -73 -136 -122 -196c-49 -61 -103 -115 -162 -165c0 0 1 0 1 -1
c1 0 1 -1 2 -1c28 -19 53 -40 77 -65c41 -30 85 -53 131 -70c47 -17 97 -24 149 -22c59 3 114 16 167 39c52 23 102 51 150 84c9 6 19 8 32 8c12 0 21 -3 26 -8s1 -12 -12 -22c-92 -62 -187 -104 -283 -124s-190 -16 -282 14c42 -73 71 -152 86 -237c15 -84 16 -166 2 -246
c-6 -32 -19 -63 -39 -93c-21 -30 -46 -50 -75 -60c-30 -10 -61 0 -94 30c-32 33 -57 73 -73 121c-17 48 -29 93 -36 138zM223 -180c-9 66 -26 130 -51 193c-26 62 -61 118 -106 167c-6 4 -11 8 -17 13c-2 2 -5 3 -7 5c-3 -56 -4 -111 -3 -163c-2 -90 5 -181 20 -273
c15 -93 52 -174 112 -245c1 0 2 -1 4 -2c1 -1 3 -2 5 -3c2 -2 4 -3 6 -4l1 1c2 2 4 4 5 6c2 2 3 4 4 6c2 6 4 10 6 15c9 22 16 46 22 70c11 72 11 143 -1 214zM198 716c-42 -54 -73 -114 -96 -179c-22 -65 -38 -133 -47 -203c82 79 148 169 198 270c1 2 2 3 3 5
c9 19 18 39 26 60c9 22 13 43 13 64c-2 24 -8 36 -20 36c-12 1 -25 -4 -40 -16s-27 -24 -37 -37z" />
    <glyph glyph-name="g" unicode="g" horiz-adv-x="1053" 
d="M995 205c-167 -32 -329 -86 -486 -161c8 -158 -2 -312 -32 -462c-10 -54 -24 -110 -42 -169c-18 -58 -43 -112 -74 -162c-32 -51 -73 -90 -124 -120c-79 -40 -154 -44 -225 -11c-71 32 -115 92 -132 180c-12 79 -5 154 19 224c25 71 61 136 109 196
c48 61 101 114 160 162c81 66 169 124 263 174c-5 55 -12 109 -23 162c-56 -65 -125 -110 -207 -136c-46 -14 -96 -16 -150 -7s-94 37 -117 84c-13 32 -12 62 3 89c15 26 36 49 64 68s56 34 82 44c49 21 99 31 151 29c52 -1 99 -18 143 -51c9 -9 11 -18 4 -26
s-17 -14 -30 -17c-13 -4 -24 -3 -33 3c-33 25 -67 39 -104 41s-75 -5 -113 -22c-24 -11 -45 -27 -65 -48s-31 -43 -33 -67s10 -46 38 -65c45 -26 90 -32 135 -18c46 14 88 38 127 73c38 35 69 70 92 106c4 6 11 12 22 17c10 4 20 7 31 6c10 0 16 -5 19 -15
c18 -70 31 -141 37 -213c154 72 314 124 479 157c15 2 26 1 34 -6c7 -6 9 -13 6 -21c-4 -8 -13 -14 -28 -18zM411 -371c20 123 28 248 23 375c-117 -64 -222 -144 -313 -240c-46 -48 -84 -101 -114 -158s-48 -119 -55 -187c-4 -39 -1 -80 8 -122c9 -41 27 -76 54 -105
c26 -29 63 -44 110 -45c67 2 120 33 159 91c40 59 69 126 89 201c19 74 32 138 39 190z" />
    <glyph glyph-name="h" unicode="h" horiz-adv-x="1153" 
d="M200 57c-26 -27 -58 -43 -95 -46s-66 13 -87 49c-11 24 -18 51 -20 80c-3 30 -4 59 -3 87v26c0 83 5 166 15 248c9 90 24 178 43 267c19 88 46 173 81 256c27 68 64 135 112 203c47 67 107 114 178 139c49 13 88 10 119 -9c31 -20 54 -48 69 -87c15 -38 23 -78 24 -120
c0 -119 -27 -233 -82 -343c-55 -111 -125 -214 -209 -308c-84 -95 -169 -177 -255 -248c-5 -4 -12 -7 -20 -8v-9c-1 -23 0 -47 1 -73c2 -25 7 -47 16 -66c11 -20 23 -28 35 -25s24 12 35 26s21 28 29 42c1 2 2 3 3 4c19 32 43 67 73 104c30 38 63 62 99 72
c35 11 70 -9 105 -58c4 -7 8 -13 12 -20c30 -50 63 -93 100 -129c36 -36 87 -56 151 -62c73 -3 142 13 208 47s125 75 179 123c3 2 8 6 15 10s14 9 21 12c8 4 14 6 19 7c13 0 24 -1 31 -6c7 -4 6 -11 -4 -21c-52 -46 -111 -88 -179 -127c-68 -38 -138 -65 -210 -81
c-73 -16 -142 -13 -208 8c-66 22 -122 70 -170 143c-7 13 -13 26 -18 41c-4 12 -9 23 -14 33c-5 9 -11 15 -20 17c-19 3 -36 -3 -50 -17s-26 -30 -35 -46c-2 -1 -3 -3 -4 -5c-8 -12 -17 -25 -25 -38c-19 -33 -41 -64 -65 -92zM238 1092c-34 -66 -61 -135 -81 -206
c-21 -72 -37 -144 -49 -217c-22 -121 -34 -243 -37 -366c80 68 157 147 232 234c74 88 136 182 184 283c48 100 72 205 73 313c1 41 -6 81 -20 120c-16 34 -42 52 -78 55c-35 3 -66 -7 -93 -30c-54 -54 -97 -116 -131 -186z" />
    <glyph glyph-name="i" unicode="i" horiz-adv-x="812" 
d="M230 10c-69 15 -124 43 -165 83c-42 40 -67 89 -76 148c-8 59 2 119 30 182c3 5 9 10 17 14c9 3 18 6 28 7c9 1 17 1 23 -1s8 -5 6 -10c-22 -49 -32 -100 -30 -152c2 -53 18 -99 47 -139s75 -68 136 -83c94 -16 188 -9 284 22s180 79 252 144c1 1 4 4 9 7c5 4 10 7 16 11
c6 3 12 5 16 6c13 1 23 0 30 -3s6 -9 -3 -19c-82 -77 -180 -136 -291 -176c-112 -41 -222 -54 -329 -41zM99 507c-14 0 -25 5 -35 13c-9 8 -14 19 -13 34c2 13 8 23 18 31c10 7 21 12 34 13h1c0 1 1 1 1 1v0h1h1h1h2c14 -1 25 -6 34 -15c9 -8 13 -20 12 -34
c-3 -13 -10 -24 -21 -31c-11 -8 -23 -12 -36 -12z" />
    <glyph glyph-name="j" unicode="j" horiz-adv-x="697" 
d="M-432 548c-13 1 -24 5 -33 13c-8 9 -11 20 -9 34c3 11 9 19 18 24c10 6 20 10 31 12h4s1 1 2 1h2h3c2 1 4 0 6 0c12 -2 22 -7 30 -15c8 -9 10 -20 7 -33c-5 -13 -13 -21 -25 -27s-24 -9 -36 -9zM-750 -890c-38 28 -63 64 -73 107c-10 44 -12 89 -4 135c7 47 19 90 34 128
c28 70 63 135 107 195s94 116 148 166c48 44 98 85 150 122c-9 113 -22 227 -37 340c-6 48 -12 96 -17 144c0 10 5 17 17 23s24 9 36 9s20 -4 21 -12c7 -57 14 -114 22 -171c13 -94 24 -188 33 -282c186 116 386 193 602 233c17 3 26 1 28 -5s-1 -12 -9 -20
c-7 -8 -17 -13 -29 -16c-213 -39 -409 -120 -588 -242c13 -138 9 -275 -12 -410c-11 -70 -31 -142 -61 -214c-29 -72 -69 -133 -120 -185c-33 -33 -73 -55 -118 -68c-45 -12 -88 -4 -130 23zM-695 -457c-18 -37 -33 -77 -47 -122c-13 -45 -18 -90 -16 -135
c3 -44 18 -84 47 -119c34 -36 67 -48 98 -35c32 13 61 40 87 79c27 40 49 81 67 125c19 43 31 77 38 101c28 100 42 202 41 306c1 55 -1 111 -4 166c-25 -19 -48 -38 -71 -59c-100 -87 -180 -189 -240 -307z" />
    <glyph glyph-name="k" unicode="k" horiz-adv-x="831" 
d="M794 210c4 3 9 7 17 12c7 5 15 10 22 15c8 4 14 7 18 8c9 1 17 1 24 0c7 -2 12 -4 14 -8c1 -4 -1 -9 -8 -15c-73 -68 -155 -120 -245 -156c-91 -35 -183 -50 -277 -45s-184 35 -269 88c13 -54 35 -103 66 -145s75 -71 132 -87c6 -2 8 -5 5 -9s-9 -9 -17 -13
s-17 -7 -26 -10c-9 -2 -17 -3 -22 -2c-80 24 -137 70 -172 138c-36 68 -57 143 -64 227c-7 83 -8 159 -3 229c4 74 13 151 30 231c16 79 43 154 80 224s88 128 153 173c27 19 59 34 96 45c36 12 71 11 104 -2c32 -15 52 -39 60 -71c7 -33 8 -67 1 -102
c-7 -36 -15 -67 -25 -93c-38 -105 -90 -203 -154 -294s-136 -176 -215 -254c36 26 75 46 116 57c34 9 64 6 90 -8c27 -14 41 -40 45 -77c0 -30 -11 -54 -34 -72c-22 -18 -47 -31 -73 -38c-39 -10 -78 -13 -116 -9c106 -68 216 -95 331 -80s220 63 316 143zM295 246
c0 30 -10 49 -29 57c-20 9 -42 6 -68 -8c-36 -22 -69 -49 -98 -80c-2 -2 -5 -5 -8 -7c20 -7 45 -13 77 -19c31 -6 59 -6 85 1c25 6 39 25 41 56zM183 915c-50 -88 -83 -183 -101 -287c-17 -104 -24 -206 -19 -305c0 -4 0 -7 1 -11v-5c120 119 219 254 297 404
c24 44 45 93 64 145c19 53 23 105 12 156c-16 50 -41 70 -75 61c-35 -10 -69 -32 -104 -67c-35 -34 -60 -65 -75 -91z" />
    <glyph glyph-name="l" unicode="l" horiz-adv-x="768" 
d="M784 229c-57 -58 -125 -110 -203 -156s-160 -75 -246 -87c-85 -11 -168 5 -247 50c-73 48 -122 114 -146 199c-1 2 -1 3 -1 4c-1 1 -1 2 -1 3c0 0 -1 2 -1 3c-18 66 -26 134 -24 204c2 71 11 135 25 195c13 60 36 126 68 198s73 136 124 191s111 88 182 97
c60 4 100 -11 119 -44c20 -33 26 -76 19 -127c-6 -51 -19 -102 -38 -151c-18 -50 -36 -89 -52 -117c-44 -79 -94 -156 -152 -232c-57 -76 -120 -144 -189 -204c0 -1 1 -2 1 -3c3 -9 6 -17 9 -26c52 -132 150 -198 292 -198c76 4 146 25 212 64c65 38 124 84 177 137
c1 1 4 3 9 7c4 3 9 6 14 9s9 5 12 6c9 2 18 2 26 2c8 -1 14 -3 17 -7s1 -9 -6 -17zM111 902c-51 -88 -87 -183 -107 -287s-19 -206 3 -307c51 51 99 106 144 166c44 60 84 120 120 181c28 44 51 90 71 138s33 98 38 150c3 33 0 63 -8 89s-24 41 -48 46
c-24 6 -58 -7 -101 -36c-23 -17 -43 -38 -62 -64s-36 -51 -50 -76z" />
    <glyph glyph-name="m" unicode="m" horiz-adv-x="1849" 
d="M-12 -22v0l-1 1c-18 88 -19 177 -5 266c2 6 6 11 14 15s17 7 26 9c10 1 18 1 25 -1s10 -6 10 -13c-5 -35 -8 -71 -9 -107c30 58 70 104 120 136c49 32 110 36 182 13c33 -13 59 -32 79 -58c19 -26 37 -53 51 -83c20 -43 46 -80 78 -112c24 -19 48 -25 74 -17
c26 9 51 25 76 48c25 24 49 49 72 75c27 31 50 54 70 70c54 37 102 47 142 30c40 -16 79 -42 116 -77c21 -19 44 -37 67 -54c23 -16 48 -28 75 -36c56 -15 117 -22 184 -22s131 11 192 31c62 20 114 53 156 98c2 2 6 7 14 14c7 8 15 15 24 23s17 14 24 18s14 6 21 5
s12 -3 16 -7c3 -4 3 -9 0 -15c-45 -68 -106 -118 -181 -148c-75 -31 -152 -48 -232 -54c-64 -6 -132 -6 -201 3c-70 8 -131 33 -183 76c-11 10 -22 21 -33 33c-23 26 -47 46 -74 61c-26 14 -57 10 -93 -12c-23 -18 -45 -39 -65 -65c-13 -14 -25 -28 -38 -40l-11 -11
c-26 -27 -55 -51 -86 -72c-32 -21 -67 -30 -106 -28c-42 7 -74 24 -99 54c-24 29 -45 62 -63 97c-10 19 -21 38 -32 55c-13 23 -31 44 -51 61c-49 34 -91 41 -125 22s-60 -46 -79 -80c-32 -59 -54 -121 -67 -187v0l-1 -1c-1 -2 -1 -3 -3 -5c-1 -1 -2 -3 -4 -4
c0 -1 -1 -1 -2 -2h-1c-2 -2 -5 -4 -8 -5c0 0 -1 -1 -2 -1h-1l-9 -3s-5 -2 -8 -2h-1c-1 -1 -2 -1 -3 -1c-4 0 -8 -1 -12 0v0h-1c-3 0 -6 0 -8 1h-1s-1 1 -2 1c-2 1 -3 2 -4 3s-2 2 -3 4z" />
    <glyph glyph-name="n" unicode="n" horiz-adv-x="1121" 
d="M65 15c-3 -6 -10 -11 -21 -17c-11 -5 -22 -9 -33 -9c-11 -1 -18 3 -21 11c-19 79 -22 159 -11 240c1 6 6 11 14 15c7 4 16 7 26 9c9 1 18 1 25 -1s10 -6 9 -13c-4 -33 -6 -66 -5 -98c18 40 49 73 93 99c74 40 139 28 193 -35c13 -18 25 -36 37 -55c11 -19 23 -38 37 -55
c13 -17 30 -32 50 -43c26 -13 56 -22 90 -28c34 -5 65 -7 94 -6c78 2 153 21 224 54c72 34 137 76 195 128c4 3 10 7 18 13c8 5 17 11 25 16c9 4 16 7 20 8c13 1 22 0 29 -3c6 -3 5 -9 -3 -18c-78 -73 -169 -133 -271 -178c-103 -45 -208 -64 -317 -57c-49 3 -94 12 -135 27
c-42 15 -77 43 -107 83c-8 12 -15 23 -22 35c-8 14 -16 26 -25 39c-12 17 -27 30 -46 41c-18 10 -38 11 -60 1c-25 -13 -43 -33 -55 -61c-12 -27 -22 -56 -29 -86c-6 -21 -12 -39 -18 -56z" />
    <glyph glyph-name="o" unicode="o" horiz-adv-x="1043" 
d="M1043 209c-66 -33 -141 -62 -224 -87s-168 -40 -254 -43c-86 -4 -167 9 -242 39c-24 -42 -58 -74 -103 -95s-90 -27 -136 -18c-45 8 -82 36 -109 83c-26 54 -28 106 -5 156c22 50 57 88 105 113c47 24 95 25 143 2c40 3 71 -13 94 -49s34 -73 34 -111c0 -7 -1 -14 -2 -21
c0 0 0 -1 -1 -2c67 -35 141 -52 221 -50c80 1 159 13 237 36c79 24 149 51 211 82c12 6 23 7 34 4c10 -3 16 -9 17 -16c1 -8 -6 -15 -20 -23zM238 282v-1h-1c-2 -8 0 -17 5 -25c6 -9 12 -14 20 -15c-1 10 -5 18 -10 26s-10 13 -14 15zM169 61c19 3 38 11 57 25
c18 14 31 34 39 62c-13 8 -26 17 -38 27c-20 16 -37 37 -52 64c-16 27 -21 52 -15 76c-31 8 -59 0 -85 -25c-26 -24 -41 -54 -45 -88c-3 -32 3 -62 20 -90c16 -26 34 -42 54 -48s41 -7 65 -3z" />
    <glyph glyph-name="p" unicode="p" horiz-adv-x="965" 
d="M115 -438c0 -11 -6 -19 -17 -26c-12 -6 -24 -9 -36 -9c-13 1 -20 6 -22 15c-18 165 -31 330 -40 496c-8 165 -7 330 4 496c2 10 9 18 21 23c13 5 25 7 37 5c11 -2 17 -9 17 -20c-6 -85 -9 -169 -9 -253c30 46 71 83 122 111c36 20 78 32 125 37c47 6 86 -8 118 -41
c22 -27 30 -57 25 -88s-18 -61 -39 -88c-21 -28 -43 -50 -67 -66c-21 -14 -42 -25 -64 -34c14 -4 27 -7 39 -9c112 -16 221 -13 327 11s208 64 305 121c9 4 19 6 32 6c12 0 21 -2 26 -6s1 -11 -12 -19c-167 -99 -347 -154 -541 -163c-70 -1 -141 4 -210 16
c-27 5 -54 11 -80 18c-26 -1 -52 0 -78 4c-8 1 -12 4 -13 9s1 9 7 15c17 14 37 22 59 23s45 -2 69 -8c33 6 63 18 90 37s48 44 61 75c9 21 13 43 13 67c-1 23 -9 43 -26 60c-27 23 -56 30 -86 20c-31 -9 -59 -27 -84 -52c-26 -24 -45 -48 -57 -70c-22 -40 -35 -83 -37 -128
c-2 -8 -9 -14 -21 -19c7 -189 21 -377 42 -566z" />
    <glyph glyph-name="q" unicode="q" horiz-adv-x="1234" 
d="M319 164c-30 -56 -72 -96 -128 -122c-54 -20 -101 -18 -142 5c-41 24 -60 66 -59 126c6 65 33 121 81 168s104 75 168 85c37 3 72 -4 104 -21c4 5 9 11 13 17c5 5 13 9 24 12c10 3 20 4 30 2c9 -2 14 -8 14 -18c0 -50 0 -100 2 -150c1 0 1 1 2 2s3 2 4 3
c29 16 54 15 76 -1s43 -37 61 -63c17 -23 34 -40 51 -53c60 -39 125 -58 194 -58c68 0 136 12 203 37c68 25 129 56 185 94c2 1 7 4 15 7c7 4 15 7 23 10c9 2 15 4 20 3c11 -1 18 -5 22 -11c3 -6 -1 -13 -13 -22c-70 -49 -145 -89 -225 -118c-81 -30 -164 -45 -249 -45
c-72 0 -140 15 -205 47c-15 8 -37 22 -65 42s-49 41 -65 63v-1v0c-9 -31 -16 -63 -20 -96c0 -1 -1 -3 -1 -4c-1 -6 -1 -11 -2 -17c-1 -4 -1 -8 -2 -12c5 -74 11 -149 17 -223c16 -168 25 -335 29 -503v-27c2 -32 1 -66 -3 -101c-4 -34 -18 -61 -41 -79
c-22 -13 -43 -15 -63 -7c-19 8 -33 24 -40 46c-12 50 -15 104 -9 162c1 21 1 40 1 58c0 125 3 250 9 375c4 95 12 191 25 286c-4 59 -7 118 -9 178c0 -1 0 -1 -1 -1h-1c-7 -27 -17 -52 -30 -75zM405 -744c9 55 12 102 11 141c-2 40 -7 77 -16 113c-14 -74 -12 -158 5 -254z
M98 280c-18 -31 -26 -67 -25 -109s13 -71 36 -88s59 -4 107 40c22 21 38 45 49 72s20 55 28 84c6 23 13 46 21 68c-7 9 -19 16 -33 19c-15 3 -26 5 -35 5c-35 -4 -64 -12 -87 -25c-22 -13 -43 -35 -61 -66z" />
    <glyph glyph-name="r" unicode="r" horiz-adv-x="936" 
d="M978 231c-45 -56 -100 -105 -164 -148c-65 -42 -131 -74 -200 -96c-34 -12 -70 -19 -108 -22c-37 -3 -73 3 -108 17c-34 15 -58 35 -74 61c-15 25 -28 53 -38 84c-6 15 -12 31 -18 47c-12 27 -25 39 -37 34c-13 -4 -26 -15 -41 -32c-14 -16 -30 -30 -48 -40
c-14 -7 -30 -12 -47 -15c-18 -2 -34 0 -50 6c-36 18 -57 47 -61 88c-5 41 -1 84 13 127c14 44 30 78 49 104c12 16 30 32 53 47s47 22 70 23c24 0 42 -13 55 -39c12 -31 10 -63 -6 -96c-17 -34 -40 -65 -69 -95c-29 -29 -56 -53 -82 -72v-2c0 0 1 -1 1 -2
c8 -23 19 -34 31 -31c13 2 28 11 48 26c8 6 16 14 24 22c9 11 20 20 32 27c16 10 35 16 56 20c21 3 40 -2 57 -14c11 -9 20 -23 26 -40c5 -17 9 -35 13 -54c4 -26 11 -49 20 -69c37 -61 86 -89 149 -86c62 3 126 24 191 63c64 38 118 80 161 125c5 4 11 10 21 18
c9 8 19 16 28 22c10 7 18 11 24 12c11 1 21 0 27 -3c7 -3 7 -9 2 -17zM153 451c-18 0 -34 -11 -48 -33c-15 -22 -26 -48 -34 -76s-11 -52 -11 -71c26 16 49 36 66 62c18 25 30 50 35 73c6 22 3 37 -8 45z" />
    <glyph glyph-name="s" unicode="s" horiz-adv-x="915" 
d="M825 180c6 5 15 13 28 24c14 11 27 21 40 30s22 14 28 15c8 1 13 -1 13 -5s-2 -9 -7 -14c-63 -69 -126 -120 -187 -153c-62 -33 -142 -51 -241 -56c-34 -1 -73 -1 -119 1c-79 6 -153 4 -224 -5c26 -37 48 -77 64 -118c14 -46 6 -81 -25 -105s-68 -34 -111 -30
c-42 5 -75 27 -96 68c-20 46 -21 86 -3 119c17 34 45 60 85 78c-5 7 -10 13 -13 18s-6 9 -9 14c-2 2 -3 5 -6 9c-7 10 -14 22 -22 34c-31 42 -57 88 -78 137c-21 50 -19 97 8 143c24 34 56 59 97 76c40 16 81 25 121 27c46 2 88 -7 128 -29c40 -21 60 -57 58 -109
c-7 -47 -29 -82 -66 -107c-38 -25 -78 -41 -120 -49c-20 -3 -31 0 -34 8c-2 8 7 15 26 20c50 13 86 35 106 69c21 33 25 66 12 98c-13 33 -44 54 -94 64c-65 7 -114 -8 -150 -46c-35 -37 -44 -86 -26 -147c25 -63 58 -121 99 -173c7 -10 15 -20 22 -31c22 6 44 10 66 11
c22 2 42 3 59 2c28 0 57 -1 85 -2c89 -7 177 -4 264 9c89 17 163 52 222 105zM158 -133c0 18 -6 38 -18 59s-27 43 -44 67c-1 -1 -2 -1 -3 -2c-8 -5 -17 -12 -28 -20c-10 -8 -18 -16 -22 -23c0 0 0 -1 -1 -2s-1 -2 -2 -4c-1 -1 -2 -3 -3 -5c-1 -1 -1 -3 -2 -4
c-4 -12 -6 -25 -6 -40s3 -26 8 -33c10 -22 24 -35 43 -39c19 -3 36 -1 52 8s24 21 26 38z" />
    <glyph glyph-name="t" unicode="t" horiz-adv-x="809" 
d="M-341 776h-25c-17 0 -34 1 -50 3c-16 3 -30 10 -41 21c-3 4 -2 8 3 12c5 5 12 9 21 12c9 4 18 6 27 7c9 0 15 -1 19 -4c9 -10 24 -16 43 -20c20 -3 41 -5 64 -5c4 19 8 37 13 54c17 61 41 122 72 182c31 61 70 112 119 155c34 29 73 45 117 49c44 3 78 -17 104 -61
c25 -55 31 -117 19 -186s-31 -134 -56 -196c91 0 182 2 272 5c12 0 18 -1 19 -4s-2 -7 -8 -11c-6 -5 -13 -9 -21 -12c-8 -4 -15 -6 -21 -6c-85 -3 -169 -5 -254 -5c-6 -16 -12 -31 -18 -45c-63 -159 -144 -308 -243 -447c14 -30 31 -58 51 -84c59 -68 130 -105 215 -110
c85 -6 170 8 255 42c85 33 157 74 217 121c6 4 13 7 23 8c9 2 19 2 27 1c9 -1 15 -3 18 -7s1 -9 -7 -16c-64 -50 -138 -94 -221 -130c-84 -37 -170 -59 -259 -65c-88 -7 -171 11 -248 52c-71 42 -123 102 -155 180c-33 78 -51 162 -54 252s3 176 18 256c-8 0 -16 0 -25 1
c-10 0 -20 0 -30 1zM-193 339c92 132 165 274 220 427h-35c-29 0 -58 0 -87 1c-26 0 -51 1 -77 2c-14 1 -28 1 -41 2c-13 -69 -18 -141 -16 -216s14 -147 36 -216zM-83 1101c-57 -85 -98 -178 -120 -278c-1 -4 -2 -9 -3 -13c0 -2 -1 -5 -1 -7c11 1 20 1 28 0
c56 -2 113 -3 170 -4h26h21c15 48 28 97 37 146c6 30 11 62 13 96c2 33 -1 65 -9 95c-12 36 -28 53 -49 52s-41 -11 -62 -31c-21 -19 -38 -38 -51 -56z" />
    <glyph glyph-name="u" unicode="u" horiz-adv-x="1238" 
d="M132 -19c-52 5 -88 26 -109 64c-21 37 -32 81 -32 129c-1 49 4 93 15 131c3 9 11 16 24 21s25 6 37 4c11 -1 15 -7 14 -17c-12 -41 -19 -86 -19 -136s16 -92 50 -124c38 -28 75 -27 111 4c36 30 67 69 93 117s44 84 53 109c3 6 10 12 21 16c11 5 22 7 33 6
c10 0 17 -5 19 -14c14 -91 54 -153 118 -186c65 -32 141 -45 227 -37c87 8 171 29 252 61c80 32 144 69 191 109c8 4 15 6 22 5c6 0 12 -5 18 -14s3 -19 -7 -28c-142 -122 -318 -181 -529 -180c-68 1 -133 14 -196 40c-63 25 -110 66 -143 123c-29 -54 -65 -102 -109 -143
s-95 -61 -154 -60z" />
    <glyph glyph-name="v" unicode="v" horiz-adv-x="1035" 
d="M-180 398c-10 8 -11 16 -4 24s17 13 31 17c13 4 23 3 32 -2c14 -12 26 -27 36 -47s18 -41 26 -62c5 -14 11 -27 16 -39c4 -9 9 -18 13 -28c17 -37 35 -73 53 -110c3 -6 9 -15 17 -27c5 -7 9 -14 14 -22c0 1 1 1 1 2c0 0 1 1 1 2c20 40 38 82 56 124c1 4 3 8 5 12
c5 12 10 27 15 42c7 22 15 44 24 65c10 21 22 38 36 50c5 4 11 6 20 9c9 2 18 2 26 1s13 -6 15 -13c14 -66 41 -126 79 -178c39 -53 90 -93 153 -120c86 -32 168 -33 246 -3c79 31 148 78 209 141c8 7 19 11 32 12c14 1 24 -1 32 -5c8 -5 7 -13 -3 -23
c-65 -67 -139 -119 -223 -156s-173 -47 -267 -31c-72 15 -133 44 -185 89s-91 99 -119 164c-2 -6 -4 -11 -7 -17c-18 -43 -36 -86 -55 -128c-3 -6 -5 -11 -8 -18c-9 -25 -22 -49 -39 -74c-16 -25 -38 -36 -64 -34c-21 5 -39 20 -54 45c-14 24 -26 49 -35 74
c-5 12 -9 22 -13 30l-42 90c-9 19 -18 38 -27 56c-3 7 -6 15 -10 25c-4 12 -9 25 -15 37c-5 12 -12 21 -18 26z" />
    <glyph glyph-name="w" unicode="w" horiz-adv-x="1478" 
d="M390 8c-59 -26 -123 -40 -190 -42c-68 -2 -127 21 -178 67c-36 37 -54 78 -55 123c-1 44 12 86 37 125s59 69 101 91c29 15 65 26 107 34s81 6 116 -6s56 -39 64 -82c0 -5 -3 -10 -10 -14c-8 -4 -16 -8 -26 -10c-9 -2 -18 -3 -26 -3c-8 1 -12 3 -13 7
c-6 38 -24 62 -52 71c-28 10 -58 9 -91 -1c-33 -11 -60 -28 -82 -51c-25 -28 -41 -60 -47 -97c-8 -47 -1 -90 22 -127s56 -64 100 -81c64 -22 126 -20 186 6c59 26 110 66 152 118c42 53 70 109 82 169c2 4 6 8 14 12c7 3 16 6 25 7c10 2 18 3 25 2c7 0 11 -2 11 -5
c-4 -32 -5 -65 -1 -99s18 -64 41 -88c25 -22 47 -29 65 -20s32 25 44 48c12 24 22 46 29 68c2 5 9 10 20 15c10 5 21 7 32 8s18 -1 22 -7c42 -79 95 -127 159 -145s131 -13 200 13c69 27 131 68 186 122c4 3 10 6 19 9c9 2 17 3 26 4s16 1 21 -1c5 -1 6 -4 2 -8
c-58 -57 -127 -103 -207 -139c-81 -36 -160 -51 -240 -46c-79 6 -146 43 -202 110c-15 -25 -33 -46 -55 -63c-22 -18 -48 -29 -79 -33c-41 -5 -73 3 -96 23c-24 20 -40 47 -50 80c-53 -73 -122 -128 -208 -164z" />
    <glyph glyph-name="x" unicode="x" horiz-adv-x="852" 
d="M-14 158c-60 52 -114 109 -162 170c-5 8 -3 15 7 21c9 7 20 11 33 13c14 2 23 1 29 -5c41 -52 86 -101 134 -146c55 69 108 139 159 210c4 5 10 8 19 11s18 5 27 6c10 0 17 -1 22 -3s5 -7 1 -13c-61 -83 -123 -165 -188 -246c55 -47 117 -83 185 -111
c102 -37 197 -41 285 -11c89 30 163 90 223 178c3 5 10 9 19 12c8 3 18 5 27 6c9 0 16 -1 21 -4s6 -7 2 -14c-55 -82 -125 -144 -209 -187c-84 -42 -175 -59 -274 -51c-121 14 -227 58 -319 131c-41 -50 -83 -101 -125 -151c-4 -4 -10 -7 -19 -10s-18 -4 -27 -5
c-10 0 -17 1 -22 3s-5 6 0 11c51 61 102 123 152 185z" />
    <glyph glyph-name="y" unicode="y" horiz-adv-x="900" 
d="M100 -213c57 54 118 103 181 149c3 61 6 122 8 183c0 16 1 32 1 48c-32 -54 -72 -99 -119 -135c-48 -36 -103 -53 -167 -50c-57 6 -96 29 -114 70c-19 41 -22 87 -9 136s39 89 77 119c5 3 13 6 22 8c10 1 19 1 28 1c8 -1 14 -3 17 -7c3 -3 1 -8 -7 -14
c-24 -19 -43 -45 -56 -79c-13 -33 -17 -67 -13 -100c5 -34 21 -59 49 -77c48 -25 92 -19 133 16c40 35 75 80 104 135s50 99 63 133c3 7 11 14 23 19s23 8 34 7c11 0 17 -6 17 -16c-4 -74 -7 -149 -8 -225c-1 -39 -2 -78 -4 -116c145 93 294 177 448 251c12 5 23 6 33 4
s16 -6 17 -13c1 -6 -6 -14 -20 -22c-167 -79 -327 -172 -480 -276c-3 -104 -13 -206 -30 -306c-16 -101 -45 -197 -87 -290c-20 -45 -45 -88 -76 -129s-70 -70 -117 -89c-38 -13 -75 -14 -110 -4c-35 11 -62 35 -78 71c-29 74 -33 148 -12 221c21 74 55 143 103 208
s97 121 149 169zM234 -460c23 111 37 223 43 335c-3 -3 -7 -5 -10 -8c-6 -4 -11 -8 -17 -13c-51 -41 -103 -88 -153 -141c-51 -53 -94 -111 -128 -174c-35 -63 -53 -129 -56 -199c0 -21 1 -43 3 -67c3 -23 9 -45 18 -64c23 -40 51 -55 85 -45c33 10 62 31 86 64
c34 46 61 96 81 149s36 107 48 163z" />
    <glyph glyph-name="z" unicode="z" horiz-adv-x="626" 
d="M15 -440c20 -110 4 -208 -49 -294c-52 -85 -134 -141 -246 -166c-111 -20 -201 1 -269 62c-69 61 -98 148 -89 260c9 73 33 141 71 205s84 122 137 175c54 54 109 101 165 144c4 3 8 5 12 8c3 2 6 4 9 7c-19 46 -27 94 -24 143c4 33 15 61 31 85c16 23 35 44 56 64
c17 17 34 35 49 54c-45 -12 -83 -33 -115 -63s-44 -69 -35 -117c1 -10 -4 -18 -15 -25c-11 -6 -23 -9 -36 -9s-21 5 -24 14c-10 53 0 97 31 134c30 36 69 65 118 86c48 20 95 33 139 38c5 0 11 0 17 -1c6 -2 11 -4 14 -8s3 -10 0 -16c-20 -35 -45 -65 -73 -89l-29 -29
c-29 -32 -45 -66 -49 -102c-4 -37 0 -74 12 -112c148 101 307 181 475 241c12 3 24 4 34 0c11 -4 17 -9 18 -16s-6 -14 -21 -20c-175 -61 -338 -145 -490 -252c0 0 0 -1 1 -1v-1c21 -49 44 -96 70 -141c22 -41 43 -82 62 -125c19 -42 34 -86 43 -133zM-484 -811
c53 -41 110 -58 170 -50c59 7 113 32 160 73c48 42 79 92 96 152c15 70 12 141 -8 211c-21 69 -49 135 -82 197c-9 16 -18 33 -28 50c-17 30 -33 60 -48 92c-18 -14 -36 -29 -54 -43c-95 -79 -173 -172 -234 -280c-21 -41 -37 -86 -47 -136s-9 -98 1 -146
c10 -47 35 -87 74 -120z" />
  </font>
</defs>
</svg>
